<svg height="512pt" viewBox="0 0 512 512.0001" width="512pt" xmlns="http://www.w3.org/2000/svg" xmlns:xlink="http://www.w3.org/1999/xlink"><linearGradient id="a" gradientUnits="userSpaceOnUse" x1="-.0002896696" x2="511.9256857528" y1="256.0002080416" y2="256.0002080416"><stop offset="0" stop-color="#80d8ff"/><stop offset="1" stop-color="#ea80fc"/></linearGradient><path d="m42.15625 286.566406c1.554688 10.933594-6.050781 21.058594-16.984375 22.613282-10.929687 1.554687-21.058594-6.050782-22.613281-16.984376-11.023438-77.585937 13.644531-158.421874 72.414062-217.1875 95.121094-95.121093 244.800782-99.042968 344.53125-15.917968v-19.996094c0-11.046875 8.953125-19.996094 19.996094-19.996094s19.996094 8.949219 19.996094 19.996094v66.738281c0 11.046875-8.953125 20-19.996094 20h-1.464844c-.003906 0-.007812 0-.011718 0h-65.265626c-11.042968 0-19.996093-8.953125-19.996093-20 0-11.042969 8.953125-19.996093 19.996093-19.996093h16.238282c-84.476563-66.3125-207.464844-60.828126-285.746094 17.453124-49.742188 49.742188-70.375 117.960938-61.09375 183.277344zm467.210938-66.75c-1.554688-10.933594-11.679688-18.542968-22.609376-16.984375-10.9375 1.554688-18.539062 11.675781-16.984374 22.609375 9.277343 65.316406-11.363282 133.535156-61.097657 183.269532-78.28125 78.28125-201.269531 83.769531-285.742187 17.453124h16.234375c11.042969 0 19.996093-8.953124 19.996093-19.996093 0-11.046875-8.953124-19.996094-19.996093-19.996094-23.890625 0-42.898438 0-66.742188 0-11.042969 0-19.996093 8.949219-19.996093 19.996094v66.738281c0 11.046875 8.953124 20 19.996093 20 11.046875 0 20-8.953125 20-20v-19.992188c99.726563 83.121094 249.40625 79.199219 344.527344-15.921874 58.765625-58.761719 83.4375-139.59375 72.414063-217.175782zm-276.734376-34.804687c-6.625-8.835938-19.160156-10.628907-27.996093-4l-78.65625 58.992187c-10.667969 8-10.644531 24.007813 0 31.992188l78.65625 58.992187c8.796875 6.597657 21.339843 4.875 27.996093-4 6.625-8.835937 4.835938-21.367187-4-27.996093l-57.324218-42.992188 57.324218-42.992188c8.835938-6.628906 10.625-19.160156 4-27.996093zm46.660157 141.976562c6.59375 8.792969 19.121093 10.65625 27.996093 4l78.652344-58.992187c10.671875-8 10.648438-24.007813 0-31.992188l-78.652344-58.992187c-8.835937-6.625-21.371093-4.835938-27.996093 4-6.628907 8.835937-4.835938 21.367187 4 27.996093l57.324219 42.992188-57.324219 42.992188c-8.835938 6.628906-10.628907 19.160156-4 27.996093zm0 0" fill="url(#a)"/></svg>